<svg width="117.503" height="71.204" viewBox="0 0 117.503 71.204" xmlns="http://www.w3.org/2000/svg"><g id="svgGroup" stroke-linecap="round" fill-rule="evenodd" font-size="9pt" stroke="#ffffff" stroke-width="0.25mm" fill="#ffffff" style="stroke:#ffffff;stroke-width:0.25mm;fill:#ffffff"><path d="M 52.402 3.202 L 54.402 4.302 L 48.602 18.202 Q 46.422 16.749 43.134 15.428 A 54.617 54.617 0 0 0 40.502 14.452 Q 36.597 13.112 33.396 12.798 A 19.411 19.411 0 0 0 31.502 12.702 A 18.613 18.613 0 0 0 25.343 13.679 A 15.739 15.739 0 0 0 18.502 18.402 A 19.56 19.56 0 0 0 14.35 26.723 Q 13.602 29.83 13.602 33.502 Q 13.602 41.836 15.605 47.759 A 24.234 24.234 0 0 0 18.252 53.302 A 16.455 16.455 0 0 0 22.442 57.766 Q 26.144 60.402 31.202 60.402 Q 36.602 60.402 41.402 58.902 L 41.402 43.402 L 28.502 43.402 L 29.502 33.302 L 53.502 33.302 L 52.602 49.602 L 53.302 66.902 A 144.658 144.658 0 0 1 44.622 69.17 Q 35.778 71.169 29.313 71.202 A 42.368 42.368 0 0 1 29.102 71.202 A 31.635 31.635 0 0 1 19.3 69.75 A 25.807 25.807 0 0 1 8.002 62.402 Q 0.002 53.602 0.002 39.102 Q 0.002 22.602 10.002 11.302 A 33.963 33.963 0 0 1 20.388 3.191 A 31.658 31.658 0 0 1 34.602 0.002 A 56.36 56.36 0 0 1 41.19 0.372 A 45.941 45.941 0 0 1 45.352 1.052 Q 49.198 1.868 51.324 2.714 A 11.513 11.513 0 0 1 52.402 3.202 Z M 97.902 22.102 L 91.202 34.302 Q 90.502 33.702 89.402 32.802 Q 88.32 31.917 85.351 30.499 A 66.027 66.027 0 0 0 85.252 30.452 A 18.626 18.626 0 0 0 83.238 29.627 Q 81.394 29.002 79.852 29.002 Q 77.502 29.002 76.252 30.052 A 3.431 3.431 0 0 0 75.039 32.34 A 4.918 4.918 0 0 0 75.002 32.952 Q 75.002 34.802 78.452 36.652 A 60.168 60.168 0 0 0 83.503 39.054 A 71.343 71.343 0 0 0 86.002 40.052 A 19.695 19.695 0 0 1 91.56 43.313 A 24.329 24.329 0 0 1 93.552 45.152 Q 97.002 48.702 97.002 53.602 A 15.73 15.73 0 0 1 92.832 64.291 A 21.834 21.834 0 0 1 91.252 65.902 Q 85.502 71.202 78.002 71.202 Q 73.202 71.202 69.052 69.102 A 32.977 32.977 0 0 1 66.741 67.822 Q 64.354 66.362 63.102 64.902 L 61.302 62.802 L 69.202 53.602 Q 69.789 54.384 70.853 55.549 A 53.136 53.136 0 0 0 70.902 55.602 Q 72.002 56.802 75.252 58.802 A 15.35 15.35 0 0 0 77.753 60.059 Q 79.674 60.802 81.502 60.802 A 8.558 8.558 0 0 0 83.464 60.597 Q 86.112 59.971 86.594 57.431 A 6.587 6.587 0 0 0 86.702 56.202 A 2.485 2.485 0 0 0 86.242 54.796 Q 85.685 53.969 84.452 53.202 A 32.574 32.574 0 0 0 82.313 51.988 Q 81.173 51.393 79.852 50.799 A 59.88 59.88 0 0 0 78.952 50.402 Q 75.702 49.002 72.452 47.252 Q 69.202 45.502 66.952 42.402 Q 64.702 39.302 64.702 35.302 Q 64.702 28.602 70.602 23.602 Q 76.502 18.602 84.202 18.602 Q 87.802 18.602 91.252 19.452 Q 94.702 20.302 97.902 22.102 Z M 103.002 63.402 Q 103.002 60.202 105.352 57.752 A 7.949 7.949 0 0 1 108.028 55.877 A 7.635 7.635 0 0 1 111.002 55.302 A 9.198 9.198 0 0 1 113.594 55.635 Q 117.502 56.784 117.502 61.902 A 10.097 10.097 0 0 1 117.052 64.978 A 8.349 8.349 0 0 1 115.152 68.202 Q 112.802 70.702 109.652 70.702 A 7.751 7.751 0 0 1 107.569 70.437 A 5.588 5.588 0 0 1 104.752 68.652 A 7.18 7.18 0 0 1 103.16 65.223 A 10.033 10.033 0 0 1 103.002 63.402 Z" vector-effect="non-scaling-stroke"/></g></svg>